<svg width="160" height="48" viewBox="0 0 160 48" fill="none" xmlns="http://www.w3.org/2000/svg">
<path d="M1.89664 44.0193H5.47187L5.27664 45.0519H3.32429L3.14533 45.9995H5.09767L4.8943 47.0889H1.31907L1.5143 46.0481L0.147663 46.283L0.0419111 46.854C-0.0394366 47.2954 -0.00283014 47.5951 0.155798 47.757C0.330695 47.919 0.692693 48 1.23772 48H4.86583C5.13428 48 5.41086 47.9312 5.69558 47.7935C5.98029 47.6558 6.15519 47.4209 6.2162 47.0929L6.38296 46.202C6.41957 45.9955 6.39517 45.8497 6.30568 45.7646C6.2162 45.6755 6.07384 45.5865 5.87454 45.4893C6.06571 45.4285 6.23247 45.3394 6.37483 45.2341C6.52126 45.1248 6.60667 44.9993 6.63514 44.8535L6.73683 44.3108C6.81817 43.8735 6.7775 43.5738 6.61887 43.4118C6.44804 43.2498 6.09011 43.1688 5.54102 43.1688H2.14882C1.59972 43.1688 1.20925 43.2498 0.97741 43.4118C0.757771 43.5738 0.607278 43.8735 0.521863 44.3108L0.436447 44.7684L1.72581 44.9466L1.89664 44.0274V44.0193ZM10.2185 46.0643H12.7077L11.8414 44.0962L10.2144 46.0643H10.2185ZM7.30626 47.996L11.4225 43.1567H12.6996L15.0587 47.996H13.57L13.086 46.935H9.48231L8.62003 47.996H7.30626ZM20.8954 47.1617H17.9181L18.158 45.878H21.1354C21.3631 45.878 21.5177 45.9064 21.595 45.9631C21.6641 46.0238 21.6845 46.121 21.6601 46.2627L21.5624 46.7811C21.538 46.9228 21.477 47.02 21.3835 47.0808C21.2859 47.1334 21.1232 47.1617 20.8954 47.1617ZM17.369 43.1567L16.4619 47.996H21.3225C21.7699 47.996 22.1115 47.9231 22.3556 47.7813C22.5834 47.6315 22.7298 47.3885 22.7908 47.0565L22.9942 45.9793C23.0552 45.6553 22.9982 45.4164 22.8274 45.2665C22.6444 45.1167 22.3271 45.0398 21.8756 45.0398H18.3126L18.5078 43.9909H22.7989L23.3277 43.1567H17.3608H17.369ZM26.6833 46.0643H29.1725L28.3102 44.0962L26.6833 46.0643ZM23.771 47.996L27.8872 43.1567H29.1644L31.5235 47.996H30.0348L29.5508 46.935H25.9471L25.0848 47.996H23.771ZM39.3573 47.996L40.2643 43.1567H39.3613L34.8221 46.0076C34.635 46.1169 34.4967 46.206 34.4072 46.2668C34.3096 46.3397 34.1957 46.4288 34.0737 46.53C34.0981 46.4328 34.1266 46.3275 34.1591 46.2101C34.1876 46.0967 34.212 46.0117 34.2283 45.955C34.2486 45.878 34.269 45.793 34.2852 45.6917L34.7611 43.1526H33.5694L32.6623 47.9919H33.5653L38.3079 44.9993C38.4421 44.9102 38.5438 44.8413 38.6089 44.7927C38.7146 44.7158 38.796 44.655 38.8529 44.6064C38.8407 44.6631 38.8204 44.736 38.7919 44.8251C38.7634 44.9183 38.7431 44.9831 38.7309 45.0317C38.7065 45.1248 38.6821 45.2382 38.6536 45.3759L38.1614 47.9919H39.3532L39.3573 47.996ZM35.7088 43.1567L35.8634 42.3306H38.434L38.2794 43.1567H35.7088ZM40.4473 47.996L41.3543 43.1567H42.6884L42.3102 45.1734L45.8407 43.1567H47.7564L43.5589 45.4366L47.3131 47.996H45.1858L42.176 45.8659L41.7773 47.996H40.4432H40.4473ZM51.0062 46.0643H53.4955L52.6291 44.0962L51.0022 46.0643H51.0062ZM48.094 47.996L52.2102 43.1567H53.4873L55.8464 47.996H54.3578L53.8737 46.935H50.27L49.4078 47.996H48.094ZM61.4431 43.1567L63.8226 47.996H62.3136L60.6622 44.4971L57.815 47.996H56.4891L60.5321 43.1567H61.4472H61.4431ZM69.3583 47.1617H66.381L66.6209 45.878H69.5983C69.822 45.878 69.9765 45.9064 70.0579 45.9631C70.127 46.0238 70.1514 46.121 70.1229 46.2627L70.0253 46.7811C70.0009 46.9228 69.9399 47.02 69.8464 47.0808C69.7487 47.1334 69.5861 47.1617 69.3583 47.1617ZM65.8278 43.1567L64.9208 47.996H69.7854C70.2328 47.996 70.5744 47.9231 70.8144 47.7813C71.0422 47.6315 71.1886 47.3885 71.2496 47.0605L71.453 45.9833C71.514 45.6593 71.4571 45.4204 71.2862 45.2706C71.1073 45.1207 70.79 45.0479 70.3385 45.0479H66.7755L67.1294 43.1607H65.8278V43.1567ZM78.518 44.0193H74.9428L74.3693 47.0848H77.9445L78.1398 46.0441L79.421 46.2749L79.3152 46.8459C79.2339 47.2832 79.0793 47.587 78.8556 47.7489C78.6197 47.9109 78.2333 47.9919 77.6842 47.9919H74.292C73.747 47.9919 73.385 47.9109 73.2142 47.7489C73.0515 47.5829 73.0108 47.2832 73.0962 46.8459L73.5762 44.2946C73.6575 43.8573 73.808 43.5576 74.0317 43.3956C74.2635 43.2336 74.654 43.1486 75.2031 43.1486H78.5953C79.1444 43.1486 79.5023 43.2296 79.6732 43.3956C79.8359 43.5576 79.8765 43.8573 79.7952 44.2946L79.7098 44.7522L78.3513 44.9304L78.5221 44.0112L78.518 44.0193ZM80.2751 47.996L81.1822 43.1567H82.5163L82.138 45.1734L85.6685 43.1567H87.5842L83.3867 45.4366L87.1409 47.996H85.0136L82.0038 45.8659L81.6052 47.996H80.2711H80.2751ZM89.0973 44.3027C89.1786 43.8654 89.3332 43.5657 89.5488 43.4037C89.7847 43.2417 90.1752 43.1567 90.7202 43.1567H94.9096C95.4628 43.1567 95.8166 43.2377 95.9793 43.4037C96.1501 43.5616 96.1908 43.8613 96.1095 44.3027L95.6295 46.854C95.5482 47.2954 95.3895 47.5951 95.1618 47.757C94.9381 47.919 94.5517 48 94.0026 48H89.8132C89.2681 48 88.9061 47.919 88.7312 47.757C88.5726 47.5951 88.5319 47.2954 88.6133 46.854L89.0932 44.3027H89.0973ZM89.8986 47.0848H94.2669L94.8404 44.0193H90.4721L89.8986 47.0848ZM97.1507 47.996L98.0578 43.1567H103.252L102.475 43.999H99.2251L98.4767 47.9919H97.1548L97.1507 47.996ZM104.053 44.3027C104.134 43.8654 104.289 43.5657 104.505 43.4037C104.74 43.2417 105.131 43.1567 105.676 43.1567H109.865C110.419 43.1567 110.772 43.2377 110.935 43.4037C111.106 43.5616 111.147 43.8613 111.065 44.3027L110.585 46.854C110.504 47.2954 110.345 47.5951 110.118 47.757C109.894 47.919 109.507 48 108.958 48H104.769C104.224 48 103.862 47.919 103.687 47.757C103.528 47.5951 103.488 47.2954 103.573 46.854L104.053 44.3027ZM104.854 47.0848H109.223L109.796 44.0193H105.428L104.854 47.0848ZM120.961 47.996L121.868 43.1567H123.202L122.824 45.1734L126.355 43.1567H128.27L124.073 45.4366L127.827 47.996H125.7L122.69 45.8659L122.291 47.996H120.957H120.961ZM134.054 43.9909H131.077L130.837 45.2746H133.814C134.046 45.2746 134.209 45.2463 134.302 45.1896C134.392 45.1329 134.453 45.0317 134.481 44.8899L134.579 44.3756C134.607 44.2339 134.583 44.1326 134.514 44.0759C134.441 44.0193 134.286 43.9909 134.054 43.9909ZM129.023 47.996L129.93 43.1567H134.79C135.238 43.1567 135.555 43.2296 135.746 43.3754C135.917 43.5252 135.97 43.7641 135.909 44.0962L135.705 45.1734C135.644 45.4974 135.502 45.7363 135.274 45.8861C135.034 46.036 134.693 46.1129 134.241 46.1129H130.682L130.328 47.996H129.027H129.023ZM139.712 46.0643H142.201L141.339 44.0962L139.712 46.0643ZM136.8 47.996L140.916 43.1567H142.193L144.552 47.996H143.063L142.579 46.935H138.976L138.113 47.996H136.8ZM149.25 43.9909H152.227L151.975 45.3394H148.998C148.77 45.3394 148.615 45.3111 148.538 45.2544C148.469 45.1936 148.449 45.0964 148.473 44.9547L148.583 44.3716C148.611 44.2298 148.668 44.1286 148.762 44.0719C148.859 44.0152 149.022 43.9869 149.25 43.9869V43.9909ZM152.78 47.996L153.687 43.1567H148.823C148.371 43.1567 148.03 43.2296 147.79 43.3754C147.562 43.5252 147.42 43.7641 147.359 44.0962L147.147 45.2301C147.086 45.5541 147.143 45.793 147.31 45.9428C147.489 46.0927 147.806 46.1696 148.261 46.1696H149.002L146.033 47.996H147.928L150.564 46.1655H151.82L151.479 47.996H152.78Z" fill="white"/>
<path d="M6.88725 14.4329H12.0732L11.3736 31.7652L18.1417 14.5179H22.628L22.1887 31.8543L28.6071 14.607H33.9679L23.6815 40.6946H18.2312V24.8485L11.6339 40.7837H6.27307L6.88725 14.4329Z" fill="url(#paint0_linear_2001_228)"/>
<path fill-rule="evenodd" clip-rule="evenodd" d="M48.7813 40.9577H33.2317C32.4548 40.9577 31.9505 40.3219 32.1132 39.5484L37.116 15.7489C37.2787 14.9713 38.0475 14.3396 38.8243 14.3396H54.374C55.1508 14.3396 55.6552 14.9754 55.4925 15.7489L50.4896 39.5484C50.3269 40.3259 49.5582 40.9577 48.7813 40.9577ZM49.4728 17.802L45.5762 37.3252H38.804L42.7006 17.802H49.4728Z" fill="url(#paint1_linear_2001_228)"/>
<path d="M59.2507 40.7391H53.8859L59.5151 14.4774H74.2879C74.2879 14.4774 76.3541 14.2587 76.0897 16.5792C75.8253 18.8996 74.0235 26.9988 74.0235 26.9988C74.0235 26.9988 73.8486 28.7928 71.6034 28.7928C69.3582 28.7928 68.5691 28.6632 68.5691 28.6632L71.9532 40.7877H66.3687L63.5988 30.5017C63.5988 30.5017 63.3344 29.4083 63.3344 28.6632C63.3344 27.9181 63.6639 26.3225 63.6639 26.3225H68.8498L70.4971 18.8389C70.4971 18.8389 70.6394 18.4217 70.3547 18.1059C70.07 17.79 69.6063 17.9074 69.6063 17.9074H64.7783C64.7783 17.9074 64.335 17.8629 64.1967 18.0411C64.0584 18.2193 63.9404 18.7741 63.9404 18.7741L59.2426 40.7472L59.2507 40.7391Z" fill="url(#paint2_linear_2001_228)"/>
<path d="M80.7754 40.9375H75.321L80.9951 14.368L86.2705 14.3235L84.249 24.9173L92.2495 14.3235H97.8747L88.0276 27.104L93.3721 40.6945H87.2792L83.2362 29.226L80.7754 40.9375Z" fill="url(#paint3_linear_2001_228)"/>
<path d="M142.722 17.7373L143.246 14.4126H160L159.426 17.6928H153.667L148.831 40.893H143.336L148.172 17.6482L142.722 17.7373Z" fill="url(#paint4_linear_2001_228)"/>
<path fill-rule="evenodd" clip-rule="evenodd" d="M111.826 40.9577H96.2762C95.4994 40.9577 94.995 40.3219 95.1577 39.5484L100.161 15.7489C100.323 14.9713 101.092 14.3396 101.869 14.3396H117.419C118.195 14.3396 118.7 14.9754 118.537 15.7489L113.534 39.5484C113.371 40.3259 112.603 40.9577 111.826 40.9577ZM112.521 17.802L108.625 37.3252H101.853L105.749 17.802H112.521Z" fill="url(#paint5_linear_2001_228)"/>
<path d="M118.171 40.9577H133.721C134.498 40.9577 135.266 40.3259 135.429 39.5484L140.432 15.7489C140.595 14.9754 140.09 14.3396 139.313 14.3396H136.177C135.466 14.3396 134.762 14.8701 134.522 15.5545L132.818 24.0992L130.178 37.3252H123.406L126.143 23.6132L127.302 17.802L127.75 15.5585C127.794 14.8741 127.319 14.3436 126.607 14.3436H123.764C122.987 14.3436 122.218 14.9754 122.055 15.7529L117.052 39.5524C116.89 40.3259 117.394 40.9617 118.171 40.9617V40.9577Z" fill="url(#paint6_linear_2001_228)"/>
<path d="M19.2034 1.65629H23.6613C24.1005 1.65629 24.4015 1.71703 24.5602 1.84257C24.6944 1.96001 24.731 2.15844 24.674 2.43786L24.068 5.26449C24.007 5.54391 23.885 5.74234 23.6979 5.85978C23.4986 5.97317 23.1732 6.02581 22.7217 6.02581H18.2639L19.2034 1.65629ZM17.5032 9.55707L17.8774 7.81169H23.5148C24.4015 7.81169 25.0889 7.66995 25.5729 7.38243C26.0326 7.08681 26.3335 6.60491 26.4759 5.95292L27.3545 1.86282C27.4927 1.21893 27.3992 0.749177 27.0657 0.449506C26.7159 0.153885 26.0895 0 25.1947 0H10.9629C10.0762 0 9.38475 0.145786 8.89666 0.429258C8.44518 0.72488 8.1442 1.19868 8.00184 1.85877L7.12328 5.94887C6.98499 6.59681 7.07854 7.06251 7.408 7.35814C7.75779 7.65781 8.38824 7.80764 9.28306 7.80764H14.9896L14.6154 9.55302H17.5032V9.55707ZM11.7682 1.65629H16.3156L15.376 6.02581H10.8287C10.3975 6.02581 10.1006 5.96507 9.92978 5.83953C9.79555 5.72209 9.75895 5.52366 9.81589 5.24424L10.4219 2.41762C10.4829 2.13414 10.605 1.93571 10.7921 1.82232C10.9914 1.70893 11.3168 1.65629 11.7682 1.65629ZM28.4079 9.59352L30.4701 0H42.0174L41.6676 1.63604H32.7478L32.2882 3.77423H37.4944L37.1446 5.41027H31.9384L31.4259 7.78739H40.4596L40.0732 9.58947H28.416L28.4079 9.59352ZM55.273 7.79144H46.8332L47.4961 4.70564C47.6995 3.74994 48.1957 3.00481 48.9848 2.47431C49.7413 1.96811 50.7216 1.71298 51.9255 1.71298H56.5786L55.273 7.79144ZM58.954 9.59352L59.3404 7.79549H57.9208L59.5925 0H52.3119C50.2416 0 48.5577 0.40901 47.2602 1.23108C45.9953 2.04505 45.1981 3.21539 44.8686 4.74209L44.2138 7.79144H42.7454L42.359 9.58947H58.954V9.59352ZM61.0975 9.59352L63.1596 0H74.707L74.3572 1.63604H65.4374L64.9778 3.77423H70.184L69.8342 5.41027H64.628L64.1155 7.78739H73.1491L72.7627 9.58947H61.1056L61.0975 9.59352ZM85.6075 1.65629H79.7017L79.1526 4.20349H85.0584C85.5181 4.20349 85.8435 4.1468 86.0346 4.03746C86.2177 3.92407 86.3437 3.72564 86.4047 3.44217L86.6244 2.42166C86.6854 2.13819 86.6488 1.93976 86.5105 1.82637C86.3681 1.71298 86.0672 1.66034 85.6075 1.66034V1.65629ZM75.4187 9.59352L77.4809 0H87.1206C88.0073 0 88.6337 0.141736 88.9997 0.429258C89.3292 0.72488 89.4268 1.19868 89.2845 1.85877L88.8248 3.99696C88.6866 4.64085 88.3896 5.1106 87.9259 5.40623C87.446 5.7059 86.7586 5.85573 85.8597 5.85573H78.7987L77.9975 9.59352H75.4187ZM96.7115 5.76664H101.649L100.043 1.86282L96.7115 5.76664ZM90.8341 9.59352L99.2577 0H101.792L106.205 9.58947H103.252L102.349 7.48772H95.2025L93.4373 9.58947H90.8301L90.8341 9.59352ZM113.668 0L111.993 7.78739H119.473L121.148 0H123.772L122.096 7.78739H124.524L123.829 11.023H121.401L121.71 9.59352H111.781C110.687 9.59352 109.987 9.43153 109.678 9.11162C109.349 8.7917 109.28 8.1964 109.467 7.32574L111.045 0H113.668ZM140.228 9.59352L142.291 0H140.497L131.341 5.65325C130.963 5.87193 130.69 6.04201 130.507 6.1716C130.308 6.31334 130.08 6.49152 129.832 6.694C129.889 6.49962 129.946 6.29309 130.015 6.06226C130.08 5.83548 130.129 5.66945 130.162 5.56011C130.206 5.41027 130.251 5.23614 130.296 5.03771L131.382 0H129.019L126.957 9.58947H128.75L138.313 3.65679C138.585 3.48266 138.793 3.34497 138.923 3.25183C139.13 3.102 139.293 2.98051 139.419 2.87927C139.387 2.98861 139.342 3.1344 139.281 3.31258C139.22 3.49481 139.175 3.62845 139.151 3.71754C139.098 3.89977 139.041 4.1306 138.98 4.40192L137.865 9.58947H140.228V9.59352ZM150.596 1.65629H156.502L155.929 4.33308H150.023C149.571 4.33308 149.27 4.27638 149.12 4.16705C148.986 4.04961 148.949 3.85118 149.006 3.57175L149.254 2.41762C149.315 2.13414 149.437 1.93571 149.624 1.82232C149.823 1.70893 150.149 1.65629 150.6 1.65629H150.596ZM157.372 9.59352L159.435 0H149.791C148.896 0 148.213 0.145786 147.729 0.429258C147.273 0.72488 146.972 1.19868 146.83 1.85877L146.346 4.1063C146.208 4.75019 146.305 5.21994 146.631 5.51961C146.976 5.81524 147.599 5.96507 148.502 5.96507H149.97L143.983 9.58947H147.745L153.073 5.96102H155.567L154.786 9.58947H157.364L157.372 9.59352Z" fill="white"/>
<defs>
<linearGradient id="paint0_linear_2001_228" x1="19.8098" y1="12.8327" x2="19.8098" y2="40.7632" gradientUnits="userSpaceOnUse">
<stop stop-color="#AA0000"/>
<stop offset="0.5" stop-color="#E80000"/>
<stop offset="1" stop-color="#EB2323"/>
</linearGradient>
<linearGradient id="paint1_linear_2001_228" x1="43.5398" y1="12.7232" x2="43.5398" y2="40.937" gradientUnits="userSpaceOnUse">
<stop stop-color="#AA0000"/>
<stop offset="0.5" stop-color="#E80000"/>
<stop offset="1" stop-color="#EB2323"/>
</linearGradient>
<linearGradient id="paint2_linear_2001_228" x1="64.7501" y1="12.8739" x2="64.7501" y2="40.7673" gradientUnits="userSpaceOnUse">
<stop stop-color="#AA0000"/>
<stop offset="0.5" stop-color="#E80000"/>
<stop offset="1" stop-color="#EB2323"/>
</linearGradient>
<linearGradient id="paint3_linear_2001_228" x1="86.3448" y1="12.7073" x2="86.3448" y2="40.9168" gradientUnits="userSpaceOnUse">
<stop stop-color="#AA0000"/>
<stop offset="0.5" stop-color="#E80000"/>
<stop offset="1" stop-color="#EB2323"/>
</linearGradient>
<linearGradient id="paint4_linear_2001_228" x1="151.167" y1="12.8045" x2="151.167" y2="40.8724" gradientUnits="userSpaceOnUse">
<stop stop-color="#AA0000"/>
<stop offset="0.5" stop-color="#E80000"/>
<stop offset="1" stop-color="#EB2323"/>
</linearGradient>
<linearGradient id="paint5_linear_2001_228" x1="106.584" y1="12.7232" x2="106.584" y2="40.937" gradientUnits="userSpaceOnUse">
<stop stop-color="#AA0000"/>
<stop offset="0.5" stop-color="#E80000"/>
<stop offset="1" stop-color="#EB2323"/>
</linearGradient>
<linearGradient id="paint6_linear_2001_228" x1="128.479" y1="12.7229" x2="128.479" y2="40.941" gradientUnits="userSpaceOnUse">
<stop stop-color="#AA0000"/>
<stop offset="0.5" stop-color="#E80000"/>
<stop offset="1" stop-color="#EB2323"/>
</linearGradient>
</defs>
</svg>
