<svg width="24" height="24" viewBox="0 0 24 24" fill="none" xmlns="http://www.w3.org/2000/svg">
<path d="M13.1381 24H10.8618C10.3379 24 9.91133 23.5735 9.91133 23.0495V17.0948L5.66247 21.29C5.29164 21.6608 4.68982 21.6608 4.31899 21.29L2.70956 19.6806C2.53008 19.5011 2.43079 19.2622 2.43126 19.0079C2.43126 18.7541 2.53055 18.5152 2.71002 18.3362L6.91972 14.1261L0.950021 14.0886C0.426052 14.0886 -0.000488281 13.6621 -0.000488281 13.1381V10.8619C-0.000488281 10.3379 0.426052 9.91139 0.950021 9.91139H6.90434L2.70979 5.66332C2.53078 5.48478 2.43149 5.24588 2.43149 4.99206C2.43102 4.73777 2.53032 4.49886 2.70979 4.31939L4.31922 2.70999C4.69006 2.33917 5.29187 2.33917 5.66271 2.70999L9.8738 6.92101L9.91133 0.95049C9.91133 0.426532 10.3379 0 10.8618 0H13.1381C13.6621 0 14.0886 0.426532 14.0886 0.95049V6.90469L18.337 2.70999C18.7078 2.33917 19.3097 2.33917 19.6805 2.70999L21.2899 4.31939C21.4694 4.49886 21.5687 4.73777 21.5682 4.99206C21.5682 5.24588 21.4689 5.48478 21.2895 5.66378L17.0798 9.87387L23.0495 9.91139C23.5734 9.91139 24 10.3379 24 10.8619V13.1381C24 13.6621 23.5734 14.0886 23.0495 14.0886H17.0952L21.2899 18.3369C21.4689 18.5154 21.5682 18.7544 21.5682 19.0082C21.5687 19.2625 21.4694 19.5014 21.2899 19.6808L19.6805 21.2902C19.3097 21.6611 18.7078 21.6611 18.337 21.2902L14.1264 17.0797L14.0889 23.0497C14.0889 23.5737 13.6623 24.0002 13.1384 24.0002L13.1381 24ZM9.88825 16.1439C10.0111 16.1439 10.1349 16.1679 10.2535 16.2168C10.6094 16.3646 10.8395 16.7091 10.8395 17.0948V23.0495L13.1379 23.0717L13.16 17.0953C13.16 16.7096 13.3903 16.3651 13.746 16.2173C14.1035 16.0705 14.5089 16.1502 14.782 16.4226L18.9927 20.6337L20.6329 19.0243L16.4227 14.7825C16.1498 14.5095 16.0691 14.1031 16.2164 13.7469C16.3642 13.3908 16.7087 13.1605 17.0945 13.1605H23.0488L23.0709 10.8621L23.0488 10.84H17.0945C16.7087 10.84 16.3642 10.6097 16.2164 10.2535C16.0691 9.89741 16.1498 9.49069 16.4227 9.21799L20.6329 5.00744L19.0234 3.36681L14.7818 7.57735C14.5093 7.85075 14.1033 7.93047 13.7458 7.78316C13.3898 7.63539 13.1598 7.2909 13.1598 6.90516V0.95049L10.8614 0.928348L10.8392 6.90516C10.8392 7.2909 10.6089 7.63539 10.2533 7.78316C9.89664 7.93047 9.49085 7.85029 9.21721 7.57782L5.00635 3.36611L3.36615 4.97551L7.57631 9.21729C7.84925 9.49022 7.9299 9.89671 7.78259 10.2528C7.63482 10.609 7.29032 10.8393 6.90457 10.8393H0.950254L0.928111 13.1377L6.90457 13.1598C7.29032 13.1598 7.63482 13.3901 7.78259 13.7462C7.9299 14.1024 7.84925 14.5091 7.57631 14.7818L3.36615 18.9923L4.97558 20.633L9.21744 16.4219C9.39971 16.2397 9.64165 16.1432 9.88825 16.1432V16.1439Z" fill="white"/>
</svg>
